<svg aria-hidden="true" style="position: absolute; width: 0; height: 0; overflow: hidden;" version="1.1" xmlns="http://www.w3.org/2000/svg" xmlns:xlink="http://www.w3.org/1999/xlink">
  <defs>
    <symbol id="down" viewBox="0 0 32 32">
      <path d="M5.035 9.835c0.074-0.075 0.163-0.134 0.26-0.174s0.201-0.061 0.307-0.061c0.105 0 0.209 0.021 0.307 0.061s0.185 0.099 0.26 0.174l9.034 9.035 9.034-9.035c0.074-0.074 0.163-0.133 0.26-0.174s0.201-0.061 0.307-0.061c0.105 0 0.209 0.021 0.307 0.061s0.185 0.099 0.26 0.174 0.133 0.163 0.174 0.26c0.040 0.097 0.061 0.201 0.061 0.307s-0.021 0.209-0.061 0.307c-0.040 0.097-0.099 0.185-0.174 0.26l-9.6 9.6c-0.074 0.075-0.163 0.134-0.26 0.174s-0.201 0.061-0.307 0.061c-0.105 0-0.209-0.021-0.307-0.061s-0.185-0.099-0.26-0.174l-9.6-9.6c-0.074-0.074-0.134-0.163-0.174-0.26s-0.061-0.201-0.061-0.307c0-0.105 0.021-0.209 0.061-0.307s0.099-0.185 0.174-0.26z"></path>
    </symbol>
    <symbol id="icon-heart" viewBox="0 0 32 32">
      <path class="heart-path" fill="#f2f4f7" d="M16 5.496l-1.434-1.474c-3.366-3.46-9.538-2.266-11.766 2.084-1.046 2.046-1.282 5 0.628 8.77 1.84 3.63 5.668 7.978 12.572 12.714 6.904-4.736 10.73-9.084 12.572-12.714 1.91-3.772 1.676-6.724 0.628-8.77-2.228-4.35-8.4-5.546-11.766-2.086l-1.434 1.476zM16 30c-30.666-20.264-9.442-36.080-0.352-27.714 0.12 0.111 0.237 0.225 0.352 0.342 0.113-0.118 0.23-0.232 0.352-0.34 9.088-8.372 30.314 7.446-0.352 27.712z"></path>
    </symbol>
  </defs>
</svg>
